<svg xmlns="http://www.w3.org/2000/svg" width="1036" height="569.973" viewBox="0 0 1036 569.973">
  <g id="undraw_Books_l33t" transform="translate(0 0.001)" opacity="0.1">
    <path id="Path_60" data-name="Path 60" d="M269.237,245.9a13.707,13.707,0,1,1,13.707-13.707A13.707,13.707,0,0,1,269.237,245.9Zm0-25.129a11.422,11.422,0,1,0,11.422,11.422A11.422,11.422,0,0,0,269.237,220.768Z" transform="translate(-82 -165.014)" fill="#3f3d56"/>
    <path id="Path_61" data-name="Path 61" d="M878.989,601.46H856.44V578.911h22.549Zm-20.814-1.735h19.08V580.646H858.175Z" transform="translate(-82 -165.014)" fill="#3f3d56"/>
    <path id="Path_62" data-name="Path 62" d="M341.735,580.992,326.355,564.5l16.489-15.38,15.38,16.489Zm-12.929-16.4L341.82,578.54l13.953-13.014-13.014-13.953Z" transform="translate(-82 -165.014)" fill="#3f3d56"/>
    <path id="Path_63" data-name="Path 63" d="M82,165.014V734.986H1118V165.014ZM1115.72,732.7H84.284V167.3h1031.43Z" transform="translate(-82 -165.014)" fill="none"/>
    <path id="Path_64" data-name="Path 64" d="M856.9,734.415q-37.048-5.8-71.243-9.867l8.778-17.557c-3.047-1.016-16.251,9.141-16.251,9.141l11.172-50.785c-15.235,2.031-22.345,53.831-22.345,53.831l-17.267-17.266,8.5,19.549c-69.758-7.33-129.953-9.617-180.554-9.093l7.513-15.027c-3.047-1.016-16.251,9.141-16.251,9.141L580.124,655.7c-15.235,2.031-22.345,53.831-22.345,53.831l-17.267-17.267,9,20.706a1013.48,1013.48,0,0,0-103.623,8.345c7.5-23.356,33.679-45.809,33.679-45.809-20.131,6.263-30.6,16.467-36.026,25.925a407.86,407.86,0,0,1,21.806-141.2s-40.627,91.411-34.533,152.352l.773,10.825c-35.345,5.514-53.081,11.012-53.081,11.012Z" transform="translate(-82 -165.014)" fill="#3f3d56"/>
    <circle id="Ellipse_18" data-name="Ellipse 18" cx="158.77" cy="158.77" r="158.77" transform="translate(365.655 129.089)" fill="#ff9463" opacity="0.3"/>
    <path id="Path_65" data-name="Path 65" d="M459.223,85.873,353.51,214.137,509.965,398.782l104.3-122.626Z" fill="#ff9463"/>
    <path id="Path_66" data-name="Path 66" d="M459.223,85.873,353.51,214.137,509.965,398.782l104.3-122.626Z" opacity="0.1"/>
    <path id="Path_67" data-name="Path 67" d="M439.739,380.561h0a53.133,53.133,0,0,1,8.619-11.508l97.094-98.433s33.828-5.638,40.876,11.276L462.291,383.38Z" transform="translate(-82 -165.014)" fill="#f2f2f2"/>
    <path id="Path_68" data-name="Path 68" d="M434.8,378.447,578.574,598.33s14.095,9.867,28.19,4.229l147.293-99.37L597.6,266.392,456.653,376.333Z" transform="translate(-82 -165.014)" fill="#ff9463"/>
    <rect id="Rectangle_42" data-name="Rectangle 42" width="111.092" height="2.284" transform="matrix(0.812, -0.584, 0.584, 0.812, 407.812, 200.517)" fill="#3f3d56"/>
    <rect id="Rectangle_43" data-name="Rectangle 43" width="2.284" height="214.62" transform="matrix(0.834, -0.552, 0.552, 0.834, 404.713, 226.042)" fill="#3f3d56"/>
    <rect id="Rectangle_44" data-name="Rectangle 44" width="118.967" height="2.285" transform="translate(537.486 409.153) rotate(-36.344)" fill="#3f3d56"/>
    <rect id="Rectangle_45" data-name="Rectangle 45" width="2.284" height="214.661" transform="translate(513.258 140.084) rotate(-34.838)" fill="#3f3d56"/>
    <rect id="Rectangle_46" data-name="Rectangle 46" width="151.386" height="1.409" transform="translate(365.721 211.571) rotate(-42.545)" fill="#3f3d56"/>
    <rect id="Rectangle_47" data-name="Rectangle 47" width="155.492" height="1.41" transform="translate(369.979 207.992) rotate(-41.439)" fill="#3f3d56"/>
    <rect id="Rectangle_48" data-name="Rectangle 48" width="157.533" height="1.41" transform="matrix(0.768, -0.64, 0.64, 0.768, 372.827, 208.002)" fill="#3f3d56"/>
  </g>
</svg>
